<svg width="128" height="87" viewBox="0 0 128 87" fill="none" xmlns="http://www.w3.org/2000/svg">
<g clip-path="url(#clip0_103_863)">
<path d="M117.692 86.4491C111.731 86.4491 108.196 83.3875 107.926 78.9784H113.625C113.625 80.4482 114.437 82.4046 117.963 82.5261C120.407 82.5261 121.759 81.0567 121.759 79.9519C121.489 78.2385 119.315 78.117 117.151 77.7426C114.707 77.387 112.814 76.8906 111.452 76.2821C109.558 75.2993 108.467 73.2115 108.467 71.0117C108.467 67.0887 111.731 64.027 117.422 64.027C122.851 64.027 126.377 66.8456 126.638 71.1332H121.218C121.218 70.0373 120.948 68.1935 117.692 68.1935C115.519 68.1935 114.166 68.5585 113.896 70.1499C113.896 72.3596 118.504 72.2376 122.03 73.0896C125.285 73.9509 127.458 76.0293 127.458 78.9784C127.458 84.3708 123.121 86.4491 117.692 86.4491ZM13.8342 50.2701L32.5464 39.3633L42.5832 56.6458H17.3602" fill="#0C0909"/>
<path d="M53.183 85.7995V63.9863V85.7995Z" fill="#0C0909"/>
<path d="M53.183 85.7995V63.9863" stroke="#0C0909" stroke-width="6.00328"/>
<path d="M5.14944 75.2153C5.14944 78.6415 8.13416 81.4597 11.3802 81.4597C14.9155 81.4597 17.6207 78.6415 17.6207 75.2153C17.6207 71.9106 14.9155 68.9709 11.3802 68.9709C8.13416 68.9709 5.14944 71.9106 5.14944 75.2153ZM11.11 86.4871C5.14902 86.4871 0 81.4597 0 75.2153C0 68.9709 5.14944 64.0654 11.11 64.0654C13.5538 64.0654 15.727 64.6833 17.6207 66.0218V64.3085H23.0497V85.9908H17.6211V84.6429C15.9981 85.8692 13.5542 86.4871 11.1104 86.4871M83.5357 56.6412L57.5013 11.0674L76.213 0.0390625L108.759 56.6412M30.1017 75.2153C30.1017 78.6415 32.8166 81.4597 36.3422 81.4597C39.5882 81.4597 42.5827 78.6415 42.5827 75.2153C42.5827 71.9106 39.5882 68.9709 36.3422 68.9709C32.8162 68.9709 30.1017 71.9106 30.1017 75.2153ZM36.0716 86.4871C29.8311 86.4871 24.9527 81.4597 24.9527 75.2153C24.9527 68.9709 29.8311 64.0654 36.0716 64.0654C38.5061 64.0654 40.6797 64.6833 42.5827 66.0218V56.8377H48.0024V85.9908H42.5823V84.6429C40.6793 85.8692 38.5061 86.4871 36.0712 86.4871M35.8043 30.7916L54.7868 20.0161L75.6726 56.6399H55.8693V62.0323H50.4492V56.6399M123.942 62.202C122.58 62.202 121.228 60.9756 121.228 59.5058C121.228 58.036 122.58 56.8096 123.942 56.8096C125.565 56.8096 126.657 58.0364 126.657 59.5058C126.657 60.9752 125.565 62.2024 123.942 62.2024M123.942 57.1844C122.58 57.1844 121.769 58.2794 121.769 59.5058C121.769 60.7322 122.58 61.837 123.942 61.837C125.295 61.837 126.106 60.7326 126.106 59.5058C126.106 58.279 125.295 57.1844 123.942 57.1844Z" fill="#0C0909"/>
<path d="M124.502 60.9852L123.961 59.7588H123.42V60.9852H123.009V58.0455H124.231C124.502 58.0455 125.043 58.4203 125.043 58.9068C125.043 59.3934 124.772 59.6373 124.502 59.7588L125.043 60.9852M123.961 58.4203H123.42V59.3938H123.961C124.502 59.3938 124.502 59.2723 124.502 58.9068C124.502 58.6544 124.502 58.4203 123.961 58.4203ZM88.1223 75.2154C88.1223 78.6417 90.8373 81.4598 94.3628 81.4598C97.6182 81.4598 100.594 78.6417 100.594 75.2154C100.594 71.9107 97.6182 68.9711 94.3628 68.9711C90.8368 68.9711 88.1223 71.9107 88.1223 75.2154ZM94.0833 86.4873C87.8521 86.4873 82.9733 81.4598 82.9733 75.2154C82.9733 68.9711 87.8521 64.0656 94.0829 64.0656C96.5271 64.0656 98.7004 64.6835 100.594 66.022V64.3086H105.752V85.9909H100.594V84.643C98.7004 85.8694 96.5271 86.4873 94.0829 86.4873M63.1887 75.2154C63.1887 78.6417 66.1735 81.4598 69.4288 81.4598C72.9553 81.4598 75.6693 78.6417 75.6693 75.2154C75.6693 71.9107 72.9548 68.9711 69.4288 68.9711C66.1735 68.9711 63.1887 71.9107 63.1887 75.2154ZM75.6693 56.8379H81.089V85.9909H75.6693V84.643C74.037 85.8694 71.8638 86.4873 69.4288 86.4873C63.1887 86.4873 58.0393 81.4598 58.0393 75.2154C58.0393 68.9711 63.1887 64.0656 69.4288 64.0656C71.8633 64.0656 74.037 64.6835 75.6693 66.022V56.8379Z" fill="#0C0909"/>
</g>
<defs>
<clipPath id="clip0_103_863">
<rect width="127.458" height="86.5258" fill="white"/>
</clipPath>
</defs>
</svg>
