<svg width="50" height="60" viewBox="0 0 50 60" fill="none" xmlns="http://www.w3.org/2000/svg">
<path d="M2.33398 10.332H11.0007" stroke="black" stroke-width="3.33333" stroke-miterlimit="10" stroke-linecap="round"/>
<path d="M11 10.332L18.3333 38.9987" stroke="black" stroke-width="3.33333" stroke-miterlimit="10" stroke-linecap="round"/>
<path d="M19.666 39H47.166" stroke="black" stroke-width="3.33333" stroke-miterlimit="10" stroke-linecap="round"/>
<path d="M23 50.332C25.7615 50.332 28 48.0935 28 45.332C28 42.5707 25.7615 40.332 23 40.332C20.2385 40.332 18 42.5707 18 45.332C18 48.0935 20.2385 50.332 23 50.332Z" stroke="black" stroke-width="3.33333" stroke-miterlimit="10" stroke-linecap="round"/>
<path d="M42.166 50.332C44.9273 50.332 47.166 48.0935 47.166 45.332C47.166 42.5707 44.9273 40.332 42.166 40.332C39.4045 40.332 37.166 42.5707 37.166 45.332C37.166 48.0935 39.4045 50.332 42.166 50.332Z" stroke="black" stroke-width="3.33333" stroke-miterlimit="10" stroke-linecap="round"/>
<path d="M42.8331 31.8346H18.8331C17.8331 31.8346 16.8331 31.168 16.6664 30.168L13.4998 19.0013C13.1664 17.5013 14.1664 16.168 15.6664 16.168H45.8331C47.3331 16.168 48.4998 17.668 47.9998 19.0013L44.8331 30.168C44.8331 31.168 43.9998 31.8346 42.8331 31.8346Z" stroke="black" stroke-width="3.33333" stroke-miterlimit="10" stroke-linecap="round"/>
</svg>
