<svg width="96" height="80" viewBox="0 0 30 29" fill="none" xmlns="http://www.w3.org/2000/svg">
<path d="M26.8409 3.387C26.1568 2.63025 25.3445 2.02994 24.4504 1.62037C23.5563 1.21081 22.598 1 21.6302 1C20.6625 1 19.7042 1.21081 18.8101 1.62037C17.916 2.02994 17.1037 2.63025 16.4195 3.387L14.9996 4.95678L13.5798 3.387C12.1978 1.85914 10.3234 1.00079 8.36905 1.00079C6.41466 1.00079 4.54031 1.85914 3.15835 3.387C1.77638 4.91486 1 6.98708 1 9.1478C1 11.3085 1.77638 13.3807 3.15835 14.9086L4.57823 16.4784L14.9996 28L25.4211 16.4784L26.8409 14.9086C27.5254 14.1522 28.0684 13.2541 28.4389 12.2657C28.8093 11.2772 29 10.2178 29 9.1478C29 8.07785 28.8093 7.01838 28.4389 6.02992C28.0684 5.04147 27.5254 4.14339 26.8409 3.387V3.387Z" stroke="#383838" stroke-width="2" stroke-linecap="round" stroke-linejoin="round"/>
</svg>
