<svg width="20" height="19" viewBox="0 0 20 23" fill="none" xmlns="http://www.w3.org/2000/svg">
<path d="M19 9.27547C19 15.7119 10 21.2289 10 21.2289C10 21.2289 1 15.7119 1 9.27547C1 7.08068 1.94821 4.97578 3.63604 3.42383C5.32387 1.87188 7.61305 1 10 1C12.3869 1 14.6761 1.87188 16.364 3.42383C18.0518 4.97578 19 7.08068 19 9.27547Z" stroke="white" stroke-width="2" stroke-linecap="round" stroke-linejoin="round"/>
<path d="M10 12.0346C11.6569 12.0346 13 10.7995 13 9.27607C13 7.7526 11.6569 6.51758 10 6.51758C8.34315 6.51758 7 7.7526 7 9.27607C7 10.7995 8.34315 12.0346 10 12.0346Z" stroke="white" stroke-width="2" stroke-linecap="round" stroke-linejoin="round"/>
</svg>
