<svg width="20" height="19" viewBox="0 0 20 23" fill="none" xmlns="http://www.w3.org/2000/svg">
<path d="M1 15.0268V9.50984C1 7.31505 1.94821 5.21016 3.63604 3.6582C5.32387 2.10625 7.61305 1.23437 10 1.23438C12.3869 1.23438 14.6761 2.10625 16.364 3.6582C18.0518 5.21016 19 7.31505 19 9.50984V15.0268" stroke="white" stroke-width="2" stroke-linecap="round" stroke-linejoin="round"/>
<path d="M19 15.9471C19 16.4348 18.7893 16.9026 18.4142 17.2475C18.0391 17.5923 17.5304 17.7861 17 17.7861H16C15.4696 17.7861 14.9609 17.5923 14.5858 17.2475C14.2107 16.9026 14 16.4348 14 15.9471V13.1886C14 12.7009 14.2107 12.2331 14.5858 11.8882C14.9609 11.5434 15.4696 11.3496 16 11.3496H19V15.9471ZM1 15.9471C1 16.4348 1.21071 16.9026 1.58579 17.2475C1.96086 17.5923 2.46957 17.7861 3 17.7861H4C4.53043 17.7861 5.03914 17.5923 5.41421 17.2475C5.78929 16.9026 6 16.4348 6 15.9471V13.1886C6 12.7009 5.78929 12.2331 5.41421 11.8882C5.03914 11.5434 4.53043 11.3496 4 11.3496H1V15.9471Z" stroke="white" stroke-width="2" stroke-linecap="round" stroke-linejoin="round"/>
</svg>
