<svg width="276" height="36" viewBox="0 0 276 36" fill="none" xmlns="http://www.w3.org/2000/svg">
<g clip-path="url(#clip0_103_869)">
<path fill-rule="evenodd" clip-rule="evenodd" d="M94.4898 33.9206H102.535V11.1499C102.535 4.37124 114.437 4.37124 114.437 11.1499V33.9206H122.344V11.1499C122.344 4.37124 134.246 4.37124 134.246 11.1499V24.4029C134.246 27.142 134.466 29.3278 136.643 31.3752C138.02 32.6756 139.949 33.5056 142.456 33.9483V12.5056C142.456 0.359382 126.201 -2.51809 118.487 3.84555C110.745 -2.51809 94.5174 0.359382 94.5174 12.5056V33.9206H94.4898ZM148.738 0.636063C148.655 1.68745 148.93 2.62816 149.84 3.37519C152.237 5.33962 162.733 5.6163 166.205 5.92065C168.629 6.308 170.53 7.38705 169.621 12.1183C164.855 11.5372 159.014 11.1499 154.303 13.0036C145.762 16.3791 143.172 27.1143 152.181 32.2329C156.672 34.7784 168.712 34.5293 173.313 32.4266C175.214 31.5689 176.454 30.2961 177.501 28.387C178.079 27.3357 177.969 25.2606 178.107 23.0195C178.3 19.81 178.272 16.3791 178.245 13.142C178.245 11.1222 178.19 9.10246 177.997 7.60839C177.749 5.75464 176.95 4.37124 174.388 2.73883C169.704 -0.193977 154.689 0.719067 148.738 0.636063ZM169.704 17.8179C165.02 17.4305 158.794 16.9878 156.452 19.3396C155.515 20.2803 154.937 21.5807 154.937 23.0195C154.937 24.9562 155.598 26.1736 156.59 26.9483C158.683 28.5254 165.681 28.7744 167.968 27.474C169.015 26.893 169.704 25.8416 169.704 24.0155V17.8179ZM39.8839 0.553059H45.5318V33.9206H39.8839V0.553059ZM0.458496 0.553059C5.61052 0.553059 7.42888 -0.000300944 9.82581 5.39496L19.689 28.7467L30.2411 0.525391H34.8421L21.8931 33.9206H14.0687C9.52275 22.7981 5.0044 11.6756 0.458496 0.553059ZM54.5685 0.636063C54.9818 1.85345 55.7808 2.96017 57.4063 3.81788C58.8665 4.59258 60.0512 4.64792 61.4287 4.62025C64.2664 4.56492 71.8705 4.26057 73.9644 4.81393C76.7195 5.56096 77.8215 7.60839 77.0501 12.976C73.6613 13.0037 70.3001 13.0313 66.9113 13.0313C63.7154 13.059 61.2358 13.142 58.1777 14.4424C54.5961 15.9918 52.8328 17.6795 52.0338 21.5254C51.7859 22.6321 51.7308 23.7388 51.841 24.7625C51.9512 25.8139 52.2542 26.81 52.7226 27.7784C54.1002 30.6558 57.0481 32.3989 60.3542 33.2566C63.9634 34.1697 69.2256 34.0037 72.8623 33.5333C75.7001 33.1736 78.4276 32.3989 80.549 30.5175C83.249 28.1104 83.3592 25.5926 83.3592 22.3278V10.2092C83.3592 7.27638 83.3317 4.62025 80.7695 2.57282C78.9235 1.07875 76.2235 0.608395 73.1378 0.636063H54.5685ZM77.1878 16.4345H67.242C63.4399 16.4345 60.3267 17.6242 59.0869 20.4187C58.4257 21.9404 58.3705 23.6835 58.7838 25.2606C59.4175 27.6953 62.0899 29.4108 64.4593 29.8258C66.746 30.2131 69.4736 30.0195 71.2919 29.6044C75.0389 28.7467 77.1327 25.7863 77.1603 21.4147L77.1878 16.4345ZM184.196 0.553059H205.465C211.306 0.553059 216.1 5.36729 216.1 11.2329C216.1 16.1025 212.794 20.2527 208.33 21.5254L218.166 33.4503L214.419 33.478C210.837 33.5056 207.366 32.2052 205.107 29.3278L199.321 21.9404L199.211 21.7744L195.161 16.2685H202.655C205.41 16.2685 207.641 14.0274 207.641 11.2606C207.641 8.49377 205.41 6.25266 202.655 6.25266H192.681V16.2685L192.599 21.9404H192.571V33.893H184.196V0.553059ZM217.367 0.553059H248.83C248.83 3.43053 246.488 5.78231 243.623 5.78231H237.672V34.0036H229.241V5.80998H217.367V0.553059ZM275.968 33.8653H261.228C255.856 33.8653 251.282 30.3791 249.574 25.5649C248.555 22.6598 248.5 12.312 249.409 9.35148C250.952 4.26057 255.69 0.553059 261.228 0.553059H275.968C275.224 4.03922 273.323 5.92065 270.265 6.19733H264.562C260.539 6.19733 257.233 9.51748 257.233 13.557H275.995V19.976H257.233C257.233 24.0155 260.539 27.3357 264.562 27.3357H275.995V33.8653H275.968Z" fill="#0C0909"/>
</g>
<defs>
<clipPath id="clip0_103_869">
<rect width="275.509" height="35" fill="white" transform="translate(0.458496 0.525391)"/>
</clipPath>
</defs>
</svg>
